<svg id="logosandtypes_com" data-name="logosandtypes com" xmlns="http://www.w3.org/2000/svg" xmlns:xlink="http://www.w3.org/1999/xlink" viewBox="0 0 150 150"><defs><style>.cls-1{fill:none;}.cls-2{fill:url(#linear-gradient);}.cls-3{fill:#32325d;}.cls-4{fill:url(#linear-gradient-2);}</style><linearGradient id="linear-gradient" x1="64.53" y1="67.97" x2="145.78" y2="67.97" gradientUnits="userSpaceOnUse"><stop offset="0" stop-color="#d3368a"/><stop offset="0.28" stop-color="#dd4c7e"/><stop offset="0.68" stop-color="#ea5c7b"/><stop offset="1" stop-color="#ff7575"/></linearGradient><linearGradient id="linear-gradient-2" x1="4.52" y1="47.88" x2="75.27" y2="47.88" gradientUnits="userSpaceOnUse"><stop offset="0" stop-color="#038ef5"/><stop offset="0.17" stop-color="#038ef5"/><stop offset="0.38" stop-color="#4570fc"/><stop offset="1" stop-color="#4869fd"/></linearGradient></defs><path class="cls-1" d="M0,.2H150v150H0Z" transform="translate(0 -0.2)"/><path class="cls-2" d="M133.42,24.92h0M75,24.92c15.93,16,12.62,41.92-3.3,58-1.62,1.62-3.7,2.44-5,4.23-5.46,7.67,0,12.43,6.31,19l15.57,12.67a30.66,30.66,0,0,0,5.29,4.46l39.68-39.67A41.46,41.46,0,0,0,75,24.86" transform="translate(0 -0.2)"/><path class="cls-3" d="M70.27,98.35a7.3,7.3,0,0,1,0-10.08,1,1,0,0,1,.37-.3,59.26,59.26,0,0,0,6.84-7.24,41.63,41.63,0,0,0-.59-54.15c-.6-.7-1.26-1.36-1.79-1.89-11.2,3-18.32,9-19.47,19.44A13.85,13.85,0,0,1,36.06,63.7c-10.14,2.16-16.25,9.14-19.51,19.54l51.64,51.57a9.91,9.91,0,0,0,13.79,0l12-11.6Z" transform="translate(0 -0.2)"/><path class="cls-4" d="M16.62,24.63a41.54,41.54,0,0,0,0,58.61l19.5-19.47h0A13.85,13.85,0,0,1,55.69,44.2h0l19-19,.53-.53H75.1a41.3,41.3,0,0,0-58.39-.15l-.16.15" transform="translate(0 -0.2)"/></svg>